<svg viewBox="6 8 26 22" xmlns="http://www.w3.org/2000/svg" preserveAspectRatio="xMidYMid slice">
  <rect x="6" y="8" width="26" height="22" fill="#ffffff"/>
  <g>
    <path d="M19 13.14C18.73 13.32 18.48 13.53 18.24 13.76L17.05 14.89C16.5 14.61 15.9 14.47 15.3 14.47C14.35 14.47 13.41 14.82 12.68 15.51C11.98 16.17 11.6 17.06 11.6 18H9C9 16.4 9.65 14.89 10.85 13.76C13.06 11.64 16.54 11.44 19 13.14Z" fill="url(#sg1)"/>
    <path d="M23.37 18.81L20.95 21.11L19.76 22.24C19.52 22.47 19.27 22.68 19 22.86C17.9 23.62 16.6 24 15.3 24C13.69 24 12.07 23.41 10.85 22.24C9.65 21.11 9 19.6 9 18H11.6C11.6 18.94 11.98 19.83 12.68 20.49C13.92 21.66 15.81 21.84 17.24 21C17.48 20.86 17.71 20.69 17.92 20.49L19.23 19.25L21.53 17.06C22.04 16.57 22.86 16.57 23.37 17.06C23.88 17.54 23.88 18.32 23.37 18.81Z" fill="url(#sg2)"/>
    <path d="M29 18H26.4C26.4 17.06 26.02 16.17 25.32 15.51C24.59 14.82 23.65 14.47 22.7 14.47C22.02 14.47 21.35 14.65 20.76 14.99C20.52 15.13 20.29 15.3 20.08 15.51L18.77 16.75L16.47 18.94C16.22 19.18 15.88 19.3 15.55 19.3C15.22 19.3 14.88 19.18 14.63 18.94C14.12 18.46 14.12 17.67 14.63 17.19L17.05 14.89L18.24 13.76C18.48 13.53 18.73 13.32 19 13.14C21.46 11.44 24.93 11.65 27.15 13.76C28.34 14.89 29 16.4 29 18Z" fill="url(#sg3)"/>
    <path d="M29 18C29 19.6 28.34 21.11 27.15 22.24C25.92 23.41 24.31 24 22.7 24C21.4 24 20.1 23.62 19 22.86C19.27 22.68 19.52 22.47 19.76 22.24L20.95 21.11C21.49 21.39 22.09 21.53 22.7 21.53C23.65 21.53 24.59 21.18 25.32 20.49C26.02 19.83 26.4 18.94 26.4 18H29Z" fill="url(#sg4)"/>
  </g>
  <defs>
    <linearGradient id="sg1" x1="9" y1="14.98" x2="19" y2="15.07" gradientUnits="userSpaceOnUse">
      <stop stop-color="#34A6ED"/>
      <stop offset="1" stop-color="#1047D2"/>
    </linearGradient>
    <linearGradient id="sg2" x1="9" y1="20.33" x2="23.75" y2="20.48" gradientUnits="userSpaceOnUse">
      <stop stop-color="#34A6ED"/>
      <stop offset="1" stop-color="#54E3DF"/>
    </linearGradient>
    <linearGradient id="sg3" x1="14.25" y1="15.64" x2="29" y2="15.78" gradientUnits="userSpaceOnUse">
      <stop stop-color="#54E3DF"/>
      <stop offset="1" stop-color="#34A6ED"/>
    </linearGradient>
    <linearGradient id="sg4" x1="19" y1="20.98" x2="29" y2="21.07" gradientUnits="userSpaceOnUse">
      <stop stop-color="#1047D2"/>
      <stop offset="1" stop-color="#34A6ED"/>
    </linearGradient>
  </defs>
</svg>
